STARTFONT 2.1
FONT -Monotype-Arial-Regular-I-Normal--17-120-100-100-P-81-iso8859-2
SIZE 12 100 100
FONTBOUNDINGBOX 21 19 -4 -4

STARTPROPERTIES 24
FOUNDRY "Monotype"
FAMILY_NAME "Arial"
WEIGHT_NAME "Regular"
SLANT "I"
SETWIDTH_NAME "Normal"
ADD_STYLE_NAME ""
PIXEL_SIZE 17
POINT_SIZE 120
RESOLUTION_X 100
RESOLUTION_Y 100
SPACING "P"
AVERAGE_WIDTH 81
CHARSET_REGISTRY "iso8859"
CHARSET_ENCODING "2"
FACE_NAME "Arial Italic ISO Latin2"
_DEC_DEVICE_FONTNAMES "PS=arial-it-lat2"
COPYRIGHT "Copyright (c) 1994 Monotype Typography Ltd."
CAP_HEIGHT 13
X_HEIGHT 9
WEIGHT 10
QUAD_WIDTH 10
DEFAULT_CHAR 160
FONT_DESCENT 4
FONT_ASCENT 15
ENDPROPERTIES

CHARS 191

STARTCHAR space
ENCODING 32
SWIDTH 278 0
DWIDTH 5 0
BBX 0 0 0 0
BITMAP
ENDCHAR

STARTCHAR exclam
ENCODING 33
SWIDTH 278 0
DWIDTH 5 0
BBX 4 12 1 0
BITMAP
10
10
10
20
20
20
40
40
40
00
80
80
ENDCHAR

STARTCHAR quotedbl
ENCODING 34
SWIDTH 355 0
DWIDTH 6 0
BBX 5 5 2 7
BITMAP
48
48
D8
90
90
ENDCHAR

STARTCHAR numbersign
ENCODING 35
SWIDTH 556 0
DWIDTH 9 0
BBX 9 13 1 0
BITMAP
1200
1200
1200
1200
FF80
2400
2400
2400
FF00
4800
4800
4800
4800
ENDCHAR

STARTCHAR dollar
ENCODING 36
SWIDTH 556 0
DWIDTH 9 0
BBX 8 15 1 -2
BITMAP
04
1E
25
45
48
28
18
0C
12
11
91
92
7C
20
20
ENDCHAR

STARTCHAR percent
ENCODING 37
SWIDTH 889 0
DWIDTH 15 0
BBX 12 12 2 0
BITMAP
3020
4840
8880
8900
9100
6200
0460
0890
0910
1110
2120
40C0
ENDCHAR

STARTCHAR ampersand
ENCODING 38
SWIDTH 667 0
DWIDTH 11 0
BBX 10 12 1 0
BITMAP
0F00
1080
1080
1100
0E00
1400
2400
4240
8180
8300
8500
78C0
ENDCHAR

STARTCHAR quoteright
ENCODING 39
SWIDTH 222 0
DWIDTH 4 0
BBX 2 4 2 8
BITMAP
40
C0
40
80
ENDCHAR

STARTCHAR parenleft
ENCODING 40
SWIDTH 333 0
DWIDTH 6 0
BBX 5 15 1 -3
BITMAP
08
10
20
20
40
40
80
80
80
80
80
40
40
20
20
ENDCHAR

STARTCHAR parenright
ENCODING 41
SWIDTH 333 0
DWIDTH 6 0
BBX 5 15 0 -3
BITMAP
20
20
10
10
08
08
08
08
08
10
10
20
20
40
80
ENDCHAR

STARTCHAR asterisk
ENCODING 42
SWIDTH 389 0
DWIDTH 7 0
BBX 5 6 2 7
BITMAP
20
20
F8
20
50
88
ENDCHAR

STARTCHAR plus
ENCODING 43
SWIDTH 584 0
DWIDTH 10 0
BBX 9 9 1 2
BITMAP
0800
0800
0800
0800
FF80
0800
0800
0800
0800
ENDCHAR

STARTCHAR comma
ENCODING 44
SWIDTH 278 0
DWIDTH 5 0
BBX 2 4 1 -2
BITMAP
40
C0
40
80
ENDCHAR

STARTCHAR minus
ENCODING 45
SWIDTH 584 0
DWIDTH 10 0
BBX 8 1 2 6
BITMAP
FF
ENDCHAR

STARTCHAR period
ENCODING 46
SWIDTH 278 0
DWIDTH 5 0
BBX 1 2 2 0
BITMAP
80
80
ENDCHAR

STARTCHAR slash
ENCODING 47
SWIDTH 278 0
DWIDTH 5 0
BBX 4 12 1 0
BITMAP
10
10
10
20
20
20
40
40
40
80
80
80
ENDCHAR

STARTCHAR zero
ENCODING 48
SWIDTH 556 0
DWIDTH 9 0
BBX 8 12 1 0
BITMAP
1E
21
21
41
41
41
82
82
82
84
84
78
ENDCHAR

STARTCHAR one
ENCODING 49
SWIDTH 556 0
DWIDTH 9 0
BBX 5 12 3 0
BITMAP
18
28
48
90
10
10
20
20
20
40
40
40
ENDCHAR

STARTCHAR two
ENCODING 50
SWIDTH 556 0
DWIDTH 9 0
BBX 8 12 1 0
BITMAP
1E
21
41
01
01
02
04
08
10
20
40
FF
ENDCHAR

STARTCHAR three
ENCODING 51
SWIDTH 556 0
DWIDTH 9 0
BBX 8 12 1 0
BITMAP
1E
21
41
01
02
0E
01
01
01
02
84
78
ENDCHAR

STARTCHAR four
ENCODING 52
SWIDTH 556 0
DWIDTH 9 0
BBX 8 12 1 0
BITMAP
01
03
06
0A
12
24
44
84
FF
08
08
08
ENDCHAR

STARTCHAR five
ENCODING 53
SWIDTH 556 0
DWIDTH 9 0
BBX 9 12 1 0
BITMAP
1F80
1000
2000
2000
3C00
6200
0100
0100
0100
8200
4400
3800
ENDCHAR

STARTCHAR six
ENCODING 54
SWIDTH 556 0
DWIDTH 9 0
BBX 8 12 2 0
BITMAP
0E
11
20
40
5C
A2
C2
82
82
84
84
78
ENDCHAR

STARTCHAR seven
ENCODING 55
SWIDTH 556 0
DWIDTH 9 0
BBX 8 12 2 0
BITMAP
FF
02
04
08
08
10
10
20
20
40
40
40
ENDCHAR

STARTCHAR eight
ENCODING 56
SWIDTH 556 0
DWIDTH 9 0
BBX 8 12 1 0
BITMAP
0E
11
21
21
22
3C
44
82
82
82
84
78
ENDCHAR

STARTCHAR nine
ENCODING 57
SWIDTH 556 0
DWIDTH 9 0
BBX 8 12 1 0
BITMAP
1E
21
21
41
41
43
45
3A
02
04
88
70
ENDCHAR

STARTCHAR colon
ENCODING 58
SWIDTH 278 0
DWIDTH 5 0
BBX 2 9 1 0
BITMAP
40
40
00
00
00
00
00
80
80
ENDCHAR

STARTCHAR semicolon
ENCODING 59
SWIDTH 278 0
DWIDTH 5 0
BBX 3 11 1 -2
BITMAP
20
20
00
00
00
00
00
40
C0
40
80
ENDCHAR

STARTCHAR less
ENCODING 60
SWIDTH 584 0
DWIDTH 10 0
BBX 8 8 2 2
BITMAP
03
0C
30
E0
E0
30
0C
03
ENDCHAR

STARTCHAR equal
ENCODING 61
SWIDTH 584 0
DWIDTH 10 0
BBX 8 5 2 4
BITMAP
FF
00
00
00
FF
ENDCHAR

STARTCHAR greater
ENCODING 62
SWIDTH 584 0
DWIDTH 10 0
BBX 8 8 2 2
BITMAP
C0
30
0C
07
07
0C
30
C0
ENDCHAR

STARTCHAR question
ENCODING 63
SWIDTH 556 0
DWIDTH 9 0
BBX 7 12 2 0
BITMAP
3C
42
82
02
04
08
10
20
20
00
40
40
ENDCHAR

STARTCHAR at
ENCODING 64
SWIDTH 1015 0
DWIDTH 17 0
BBX 16 15 1 -3
BITMAP
07C0
1830
2008
43B4
4464
8822
9022
9022
9042
90C4
4998
4661
2002
180C
07F0
ENDCHAR

STARTCHAR A
ENCODING 65
SWIDTH 667 0
DWIDTH 11 0
BBX 11 12 0 0
BITMAP
0180
0280
0280
0440
0440
0840
1040
1FC0
2020
4020
4020
8020
ENDCHAR

STARTCHAR B
ENCODING 66
SWIDTH 667 0
DWIDTH 11 0
BBX 10 12 1 0
BITMAP
1F80
1040
1040
2040
2080
3F00
4080
4080
4080
8100
8300
FC00
ENDCHAR

STARTCHAR C
ENCODING 67
SWIDTH 722 0
DWIDTH 12 0
BBX 10 12 2 0
BITMAP
0780
1840
3040
4000
4000
8000
8000
8000
8080
8080
4100
3E00
ENDCHAR

STARTCHAR D
ENCODING 68
SWIDTH 722 0
DWIDTH 12 0
BBX 11 12 1 0
BITMAP
1F80
1040
1040
2020
2020
2020
4020
4040
4040
8080
8300
FC00
ENDCHAR

STARTCHAR E
ENCODING 69
SWIDTH 667 0
DWIDTH 11 0
BBX 11 12 1 0
BITMAP
1FE0
1000
1000
2000
2000
3FC0
4000
4000
4000
8000
8000
FF80
ENDCHAR

STARTCHAR F
ENCODING 70
SWIDTH 611 0
DWIDTH 10 0
BBX 10 12 1 0
BITMAP
1FC0
1000
1000
2000
2000
3F80
4000
4000
4000
8000
8000
8000
ENDCHAR

STARTCHAR G
ENCODING 71
SWIDTH 778 0
DWIDTH 13 0
BBX 10 12 2 0
BITMAP
0780
1840
2040
4000
4000
8000
87C0
8040
8040
8080
4080
3F00
ENDCHAR

STARTCHAR H
ENCODING 72
SWIDTH 722 0
DWIDTH 12 0
BBX 12 12 1 0
BITMAP
1010
1010
1010
2020
2020
3FE0
4040
4040
4040
8080
8080
8080
ENDCHAR

STARTCHAR I
ENCODING 73
SWIDTH 278 0
DWIDTH 6 0
BBX 4 12 2 0
BITMAP
10
10
10
20
20
20
40
40
40
80
80
80
ENDCHAR

STARTCHAR J
ENCODING 74
SWIDTH 500 0
DWIDTH 9 0
BBX 10 12 0 0
BITMAP
0040
0040
0040
0080
0080
0080
0100
0100
0100
8200
8200
7C00
ENDCHAR

STARTCHAR K
ENCODING 75
SWIDTH 667 0
DWIDTH 11 0
BBX 10 12 1 0
BITMAP
1040
1080
1100
2200
2400
2800
7000
4800
4400
8200
8100
8080
ENDCHAR

STARTCHAR L
ENCODING 76
SWIDTH 556 0
DWIDTH 9 0
BBX 8 12 1 0
BITMAP
10
10
10
20
20
20
40
40
40
80
80
FF
ENDCHAR

STARTCHAR M
ENCODING 77
SWIDTH 833 0
DWIDTH 14 0
BBX 14 12 1 0
BITMAP
1004
1004
100C
2818
2828
2848
4850
4490
4510
8520
8620
8420
ENDCHAR

STARTCHAR N
ENCODING 78
SWIDTH 722 0
DWIDTH 12 0
BBX 12 12 1 0
BITMAP
1010
1010
1810
2820
2420
2420
4240
4240
4140
8180
8080
8080
ENDCHAR

STARTCHAR O
ENCODING 79
SWIDTH 778 0
DWIDTH 13 0
BBX 11 12 2 0
BITMAP
0780
1840
2020
4020
4020
8020
8020
8040
8040
8080
4300
3C00
ENDCHAR

STARTCHAR P
ENCODING 80
SWIDTH 667 0
DWIDTH 11 0
BBX 10 12 1 0
BITMAP
1F80
1040
1040
2040
2040
2180
7E00
4000
4000
8000
8000
8000
ENDCHAR

STARTCHAR Q
ENCODING 81
SWIDTH 778 0
DWIDTH 13 0
BBX 11 13 2 -1
BITMAP
0780
1840
2020
4020
4020
8020
8020
8040
8040
8C80
4380
3E80
0040
ENDCHAR

STARTCHAR R
ENCODING 82
SWIDTH 722 0
DWIDTH 12 0
BBX 10 12 1 0
BITMAP
1F80
1040
1040
2040
2080
3F00
4200
4200
4100
8100
8080
8080
ENDCHAR

STARTCHAR S
ENCODING 83
SWIDTH 667 0
DWIDTH 11 0
BBX 9 12 2 0
BITMAP
1F00
2080
4080
4000
2000
1800
0600
0100
0100
8100
8200
7C00
ENDCHAR

STARTCHAR T
ENCODING 84
SWIDTH 611 0
DWIDTH 10 0
BBX 10 12 2 0
BITMAP
FFC0
0400
0400
0800
0800
0800
1000
1000
1000
2000
2000
2000
ENDCHAR

STARTCHAR U
ENCODING 85
SWIDTH 722 0
DWIDTH 11 0
BBX 11 12 1 0
BITMAP
2020
2020
2020
4040
4040
4040
8080
8080
8080
8100
4200
3C00
ENDCHAR

STARTCHAR V
ENCODING 86
SWIDTH 667 0
DWIDTH 11 0
BBX 9 12 3 0
BITMAP
8080
8080
8100
8200
8200
4400
4800
4800
5000
6000
6000
4000
ENDCHAR

STARTCHAR W
ENCODING 87
SWIDTH 944 0
DWIDTH 16 0
BBX 14 12 3 0
BITMAP
8304
8304
8508
8508
8910
8910
9120
9120
A140
A140
C180
C180
ENDCHAR

STARTCHAR X
ENCODING 88
SWIDTH 667 0
DWIDTH 11 0
BBX 12 12 1 0
BITMAP
2010
2020
1040
1080
0900
0A00
0400
0A00
1200
2100
4100
8080
ENDCHAR

STARTCHAR Y
ENCODING 89
SWIDTH 667 0
DWIDTH 11 0
BBX 10 12 2 0
BITMAP
8040
8080
4100
4200
2400
3800
1000
1000
1000
2000
2000
2000
ENDCHAR

STARTCHAR Z
ENCODING 90
SWIDTH 611 0
DWIDTH 10 0
BBX 10 12 1 0
BITMAP
3FC0
0040
0080
0100
0200
0400
0800
1000
2000
4000
8000
FF00
ENDCHAR

STARTCHAR bracketleft
ENCODING 91
SWIDTH 278 0
DWIDTH 5 0
BBX 7 15 0 -3
BITMAP
1E
10
10
20
20
20
20
40
40
40
40
80
80
80
F0
ENDCHAR

STARTCHAR backslash
ENCODING 92
SWIDTH 278 0
DWIDTH 5 0
BBX 4 12 1 0
BITMAP
80
80
80
40
40
40
20
20
20
10
10
10
ENDCHAR

STARTCHAR bracketright
ENCODING 93
SWIDTH 278 0
DWIDTH 5 0
BBX 7 15 -1 -3
BITMAP
1E
02
02
04
04
04
04
08
08
08
08
10
10
10
F0
ENDCHAR

STARTCHAR asciicircum
ENCODING 94
SWIDTH 469 0
DWIDTH 8 0
BBX 8 6 1 6
BITMAP
18
18
24
42
42
81
ENDCHAR

STARTCHAR underscore
ENCODING 95
SWIDTH 556 0
DWIDTH 9 0
BBX 10 1 0 -2
BITMAP
FFC0
ENDCHAR

STARTCHAR quoteleft
ENCODING 96
SWIDTH 222 0
DWIDTH 4 0
BBX 2 4 2 8
BITMAP
40
80
C0
80
ENDCHAR

STARTCHAR a
ENCODING 97
SWIDTH 556 0
DWIDTH 9 0
BBX 8 9 1 0
BITMAP
3E
41
01
1E
62
82
84
8C
74
ENDCHAR

STARTCHAR b
ENCODING 98
SWIDTH 556 0
DWIDTH 9 0
BBX 8 12 1 0
BITMAP
10
10
10
2E
31
21
41
41
42
82
C4
B8
ENDCHAR

STARTCHAR c
ENCODING 99
SWIDTH 500 0
DWIDTH 9 0
BBX 8 9 1 0
BITMAP
1E
21
41
40
80
80
82
84
78
ENDCHAR

STARTCHAR d
ENCODING 100
SWIDTH 556 0
DWIDTH 9 0
BBX 9 12 1 0
BITMAP
0080
0080
0080
1D00
2300
4100
4200
8200
8200
8400
8C00
7400
ENDCHAR

STARTCHAR e
ENCODING 101
SWIDTH 556 0
DWIDTH 9 0
BBX 8 9 1 0
BITMAP
1E
21
41
41
FF
80
82
84
78
ENDCHAR

STARTCHAR f
ENCODING 102
SWIDTH 278 0
DWIDTH 5 0
BBX 7 12 1 0
BITMAP
0E
10
10
F8
20
20
40
40
40
80
80
80
ENDCHAR

STARTCHAR g
ENCODING 103
SWIDTH 556 0
DWIDTH 9 0
BBX 9 12 0 -3
BITMAP
0E80
1980
2080
2100
4100
4100
4200
4600
3A00
0400
8400
7800
ENDCHAR

STARTCHAR h
ENCODING 104
SWIDTH 556 0
DWIDTH 9 0
BBX 8 12 1 0
BITMAP
10
10
10
2E
31
21
42
42
42
84
84
84
ENDCHAR

STARTCHAR i
ENCODING 105
SWIDTH 222 0
DWIDTH 4 0
BBX 4 12 1 0
BITMAP
10
10
00
20
20
20
40
40
40
80
80
80
ENDCHAR

STARTCHAR j
ENCODING 106
SWIDTH 222 0
DWIDTH 4 0
BBX 7 15 -2 -3
BITMAP
02
02
00
04
04
04
08
08
08
10
10
10
20
20
C0
ENDCHAR

STARTCHAR k
ENCODING 107
SWIDTH 500 0
DWIDTH 9 0
BBX 7 12 1 0
BITMAP
10
10
10
22
24
28
50
70
48
84
84
82
ENDCHAR

STARTCHAR l
ENCODING 108
SWIDTH 222 0
DWIDTH 4 0
BBX 4 12 1 0
BITMAP
10
10
10
20
20
20
40
40
40
80
80
80
ENDCHAR

STARTCHAR m
ENCODING 109
SWIDTH 833 0
DWIDTH 14 0
BBX 13 9 1 0
BITMAP
2F70
3188
2108
4210
4210
4210
8420
8420
8420
ENDCHAR

STARTCHAR n
ENCODING 110
SWIDTH 556 0
DWIDTH 9 0
BBX 8 9 1 0
BITMAP
2E
31
21
42
42
42
84
84
84
ENDCHAR

STARTCHAR o
ENCODING 111
SWIDTH 556 0
DWIDTH 9 0
BBX 8 9 1 0
BITMAP
1E
21
41
41
81
82
82
84
78
ENDCHAR

STARTCHAR p
ENCODING 112
SWIDTH 556 0
DWIDTH 9 0
BBX 9 12 0 -3
BITMAP
1700
1880
1080
2080
2080
2100
4100
6200
5C00
8000
8000
8000
ENDCHAR

STARTCHAR q
ENCODING 113
SWIDTH 556 0
DWIDTH 9 0
BBX 8 12 1 -3
BITMAP
1D
23
41
42
82
82
84
8C
74
08
08
08
ENDCHAR

STARTCHAR r
ENCODING 114
SWIDTH 333 0
DWIDTH 6 0
BBX 6 9 1 0
BITMAP
2C
30
20
60
40
40
80
80
80
ENDCHAR

STARTCHAR s
ENCODING 115
SWIDTH 500 0
DWIDTH 8 0
BBX 7 9 1 0
BITMAP
1C
22
42
40
38
04
84
88
70
ENDCHAR

STARTCHAR t
ENCODING 116
SWIDTH 278 0
DWIDTH 5 0
BBX 5 11 1 0
BITMAP
20
20
F8
20
40
40
40
80
80
80
60
ENDCHAR

STARTCHAR u
ENCODING 117
SWIDTH 556 0
DWIDTH 9 0
BBX 8 9 1 0
BITMAP
21
21
41
42
42
82
84
8C
74
ENDCHAR

STARTCHAR v
ENCODING 118
SWIDTH 500 0
DWIDTH 9 0
BBX 7 9 2 0
BITMAP
82
84
84
88
90
90
A0
C0
C0
ENDCHAR

STARTCHAR w
ENCODING 119
SWIDTH 722 0
DWIDTH 12 0
BBX 11 9 2 0
BITMAP
8420
8440
8C40
8C80
9480
9500
A500
C600
C600
ENDCHAR

STARTCHAR x
ENCODING 120
SWIDTH 500 0
DWIDTH 9 0
BBX 9 9 0 0
BITMAP
2080
2100
1200
1400
0800
1C00
2400
4200
8200
ENDCHAR

STARTCHAR y
ENCODING 121
SWIDTH 500 0
DWIDTH 9 0
BBX 9 12 0 -3
BITMAP
2080
2080
2100
1200
1200
1400
0800
0800
1000
1000
2000
C000
ENDCHAR

STARTCHAR z
ENCODING 122
SWIDTH 500 0
DWIDTH 9 0
BBX 9 9 1 0
BITMAP
3F80
0100
0200
0400
0800
1000
2000
4000
FF00
ENDCHAR

STARTCHAR braceleft
ENCODING 123
SWIDTH 334 0
DWIDTH 6 0
BBX 7 15 1 -3
BITMAP
06
08
08
10
10
10
20
C0
20
20
20
40
40
40
30
ENDCHAR

STARTCHAR bar
ENCODING 124
SWIDTH 260 0
DWIDTH 4 0
BBX 1 16 2 -4
BITMAP
80
80
80
80
80
80
80
80
80
80
80
80
80
80
80
80
ENDCHAR

STARTCHAR braceright
ENCODING 125
SWIDTH 334 0
DWIDTH 6 0
BBX 6 15 0 -3
BITMAP
18
04
04
04
04
08
08
04
08
10
10
10
20
20
C0
ENDCHAR

STARTCHAR asciitilde
ENCODING 126
SWIDTH 584 0
DWIDTH 10 0
BBX 9 3 1 4
BITMAP
7080
8880
8700
ENDCHAR

STARTCHAR space
ENCODING 160
SWIDTH 278 0
DWIDTH 5 0
BBX 0 0 0 0
BITMAP
ENDCHAR

STARTCHAR Aogonek
ENCODING 161
SWIDTH 667 0
DWIDTH 11 0
BBX 13 15 0 -3
BITMAP
0180
0280
0280
0440
0440
0840
1040
1FC0
2020
4020
4020
8020
0020
0020
0018
ENDCHAR

STARTCHAR breve
ENCODING 162
SWIDTH 333 0
DWIDTH 6 0
BBX 5 2 2 10
BITMAP
88
70
ENDCHAR

STARTCHAR Lslash
ENCODING 163
SWIDTH 556 0
DWIDTH 9 0
BBX 9 12 0 0
BITMAP
0800
0800
0800
1200
1400
1800
6000
A000
2000
4000
4000
7F80
ENDCHAR

STARTCHAR currency
ENCODING 164
SWIDTH 556 0
DWIDTH 9 0
BBX 9 9 1 2
BITMAP
8080
7F00
6300
4100
4100
4100
6300
7F00
8080
ENDCHAR

STARTCHAR Lcaron
ENCODING 165
SWIDTH 556 0
DWIDTH 9 0
BBX 8 12 1 0
BITMAP
12
16
12
24
20
20
40
40
40
80
80
FF
ENDCHAR

STARTCHAR Sacute
ENCODING 166
SWIDTH 667 0
DWIDTH 11 0
BBX 9 15 2 0
BITMAP
0300
0400
0000
1F00
2080
4080
4000
2000
1800
0600
0100
0100
8100
8200
7C00
ENDCHAR

STARTCHAR section
ENCODING 167
SWIDTH 556 0
DWIDTH 9 0
BBX 9 15 0 -3
BITMAP
1F00
3180
2080
2000
3C00
6600
4300
6100
3100
1900
0F00
0600
C200
6600
3C00
ENDCHAR

STARTCHAR dieresis
ENCODING 168
SWIDTH 333 0
DWIDTH 6 0
BBX 4 2 3 10
BITMAP
90
90
ENDCHAR

STARTCHAR Scaron
ENCODING 169
SWIDTH 667 0
DWIDTH 11 0
BBX 9 15 2 0
BITMAP
0900
0600
0000
1F00
2080
4080
4000
2000
1800
0600
0100
0100
8100
8200
7C00
ENDCHAR

STARTCHAR Scommaaccent
ENCODING 170
SWIDTH 667 0
DWIDTH 11 0
BBX 9 16 2 -4
BITMAP
1F00
2080
4080
4000
2000
1800
0600
0100
0100
8100
8200
7C00
0000
3000
1000
6000
ENDCHAR

STARTCHAR Tcaron
ENCODING 171
SWIDTH 611 0
DWIDTH 10 0
BBX 10 15 2 0
BITMAP
0900
0600
0000
FFC0
0400
0400
0800
0800
0800
1000
1000
1000
2000
2000
2000
ENDCHAR

STARTCHAR Zacute
ENCODING 172
SWIDTH 611 0
DWIDTH 10 0
BBX 10 15 1 0
BITMAP
0300
0400
0000
3FC0
0040
0080
0100
0200
0400
0800
1000
2000
4000
8000
FF00
ENDCHAR

STARTCHAR hyphen
ENCODING 173
SWIDTH 333 0
DWIDTH 6 0
BBX 5 1 1 4
BITMAP
F8
ENDCHAR

STARTCHAR Zcaron
ENCODING 174
SWIDTH 611 0
DWIDTH 10 0
BBX 10 15 1 0
BITMAP
0480
0300
0000
3FC0
0040
0080
0100
0200
0400
0800
1000
2000
4000
8000
FF00
ENDCHAR

STARTCHAR Zdotaccent
ENCODING 175
SWIDTH 611 0
DWIDTH 10 0
BBX 10 15 1 0
BITMAP
0200
0200
0000
3FC0
0040
0080
0100
0200
0400
0800
1000
2000
4000
8000
FF00
ENDCHAR

STARTCHAR degree
ENCODING 176
SWIDTH 400 0
DWIDTH 7 0
BBX 5 5 2 7
BITMAP
70
88
88
88
70
ENDCHAR

STARTCHAR aogonek
ENCODING 177
SWIDTH 556 0
DWIDTH 9 0
BBX 8 12 1 -3
BITMAP
3E
41
01
1E
62
82
84
8C
74
04
04
03
ENDCHAR

STARTCHAR ogonek
ENCODING 178
SWIDTH 333 0
DWIDTH 6 0
BBX 3 3 1 -3
BITMAP
80
80
60
ENDCHAR

STARTCHAR lslash
ENCODING 179
SWIDTH 222 0
DWIDTH 4 0
BBX 6 12 0 0
BITMAP
08
08
08
14
18
10
20
60
A0
40
40
40
ENDCHAR

STARTCHAR acute
ENCODING 180
SWIDTH 333 0
DWIDTH 6 0
BBX 3 2 3 10
BITMAP
60
80
ENDCHAR

STARTCHAR lcaron
ENCODING 181
SWIDTH 281 0
DWIDTH 4 0
BBX 6 12 1 0
BITMAP
14
1C
14
28
20
20
40
40
40
80
80
80
ENDCHAR

STARTCHAR sacute
ENCODING 182
SWIDTH 500 0
DWIDTH 8 0
BBX 7 12 1 0
BITMAP
06
08
00
1C
22
42
40
38
04
84
88
70
ENDCHAR

STARTCHAR caron
ENCODING 183
SWIDTH 333 0
DWIDTH 6 0
BBX 4 2 3 10
BITMAP
90
60
ENDCHAR

STARTCHAR commaaccent
ENCODING 184
SWIDTH 333 0
DWIDTH 6 0
BBX 3 3 1 -4
BITMAP
60
20
C0
ENDCHAR

STARTCHAR scaron
ENCODING 185
SWIDTH 500 0
DWIDTH 8 0
BBX 7 12 1 0
BITMAP
12
0C
00
1C
22
42
40
38
04
84
88
70
ENDCHAR

STARTCHAR scommaaccent
ENCODING 186
SWIDTH 500 0
DWIDTH 8 0
BBX 7 13 1 -4
BITMAP
1C
22
42
40
38
04
84
88
70
00
60
20
C0
ENDCHAR

STARTCHAR tcaron
ENCODING 187
SWIDTH 354 0
DWIDTH 5 0
BBX 6 12 1 0
BITMAP
0C
24
28
F8
20
40
40
40
80
80
80
60
ENDCHAR

STARTCHAR zacute
ENCODING 188
SWIDTH 500 0
DWIDTH 9 0
BBX 9 12 1 0
BITMAP
0300
0400
0000
3F80
0100
0200
0400
0800
1000
2000
4000
FF00
ENDCHAR

STARTCHAR hungarumlaut
ENCODING 189
SWIDTH 333 0
DWIDTH 6 0
BBX 6 2 1 10
BITMAP
6C
90
ENDCHAR

STARTCHAR zcaron
ENCODING 190
SWIDTH 500 0
DWIDTH 9 0
BBX 9 12 1 0
BITMAP
0900
0600
0000
3F80
0100
0200
0400
0800
1000
2000
4000
FF00
ENDCHAR

STARTCHAR zdotaccent
ENCODING 191
SWIDTH 500 0
DWIDTH 9 0
BBX 9 12 1 0
BITMAP
0400
0400
0000
3F80
0100
0200
0400
0800
1000
2000
4000
FF00
ENDCHAR

STARTCHAR Racute
ENCODING 192
SWIDTH 722 0
DWIDTH 12 0
BBX 10 15 1 0
BITMAP
0300
0400
0000
1F80
1040
1040
2040
2080
3F00
4200
4200
4100
8100
8080
8080
ENDCHAR

STARTCHAR Aacute
ENCODING 193
SWIDTH 667 0
DWIDTH 11 0
BBX 11 15 0 0
BITMAP
00C0
0100
0000
0180
0280
0280
0440
0440
0840
1040
1FC0
2020
4020
4020
8020
ENDCHAR

STARTCHAR Acircumflex
ENCODING 194
SWIDTH 667 0
DWIDTH 11 0
BBX 11 15 0 0
BITMAP
0180
0240
0000
0180
0280
0280
0440
0440
0840
1040
1FC0
2020
4020
4020
8020
ENDCHAR

STARTCHAR Abreve
ENCODING 195
SWIDTH 667 0
DWIDTH 11 0
BBX 11 15 0 0
BITMAP
0220
01C0
0000
0180
0280
0280
0440
0440
0840
1040
1FC0
2020
4020
4020
8020
ENDCHAR

STARTCHAR Adieresis
ENCODING 196
SWIDTH 667 0
DWIDTH 11 0
BBX 11 15 0 0
BITMAP
0240
0240
0000
0180
0280
0280
0440
0440
0840
1040
1FC0
2020
4020
4020
8020
ENDCHAR

STARTCHAR Lacute
ENCODING 197
SWIDTH 556 0
DWIDTH 9 0
BBX 8 15 1 0
BITMAP
06
08
00
10
10
10
20
20
20
40
40
40
80
80
FF
ENDCHAR

STARTCHAR Cacute
ENCODING 198
SWIDTH 722 0
DWIDTH 12 0
BBX 10 15 2 0
BITMAP
0180
0200
0000
0780
1840
3040
4000
4000
8000
8000
8000
8080
8080
4100
3E00
ENDCHAR

STARTCHAR Ccedilla
ENCODING 199
SWIDTH 722 0
DWIDTH 12 0
BBX 10 15 2 -3
BITMAP
0780
1840
3040
4000
4000
8000
8000
8000
8080
8080
4100
3E00
0800
0400
1800
ENDCHAR

STARTCHAR Ccaron
ENCODING 200
SWIDTH 722 0
DWIDTH 12 0
BBX 10 15 2 0
BITMAP
0480
0300
0000
0780
1840
3040
4000
4000
8000
8000
8000
8080
8080
4100
3E00
ENDCHAR

STARTCHAR Eacute
ENCODING 201
SWIDTH 667 0
DWIDTH 11 0
BBX 11 15 1 0
BITMAP
00C0
0100
0000
1FE0
1000
1000
2000
2000
3FC0
4000
4000
4000
8000
8000
FF80
ENDCHAR

STARTCHAR Eogonek
ENCODING 202
SWIDTH 667 0
DWIDTH 11 0
BBX 11 15 1 -3
BITMAP
1FE0
1000
1000
2000
2000
3FC0
4000
4000
4000
8000
8000
FF80
0200
0200
0180
ENDCHAR

STARTCHAR Edieresis
ENCODING 203
SWIDTH 667 0
DWIDTH 11 0
BBX 11 15 1 0
BITMAP
0240
0240
0000
1FE0
1000
1000
2000
2000
3FC0
4000
4000
4000
8000
8000
FF80
ENDCHAR

STARTCHAR Ecaron
ENCODING 204
SWIDTH 667 0
DWIDTH 11 0
BBX 11 15 1 0
BITMAP
0240
0180
0000
1FE0
1000
1000
2000
2000
3FC0
4000
4000
4000
8000
8000
FF80
ENDCHAR

STARTCHAR Iacute
ENCODING 205
SWIDTH 278 0
DWIDTH 6 0
BBX 6 15 2 0
BITMAP
0C
10
00
10
10
10
20
20
20
40
40
40
80
80
80
ENDCHAR

STARTCHAR Icircumflex
ENCODING 206
SWIDTH 278 0
DWIDTH 6 0
BBX 6 15 2 0
BITMAP
18
24
00
10
10
10
20
20
20
40
40
40
80
80
80
ENDCHAR

STARTCHAR Dcaron
ENCODING 207
SWIDTH 722 0
DWIDTH 12 0
BBX 11 15 1 0
BITMAP
0480
0300
0000
1F80
1040
1040
2020
2020
2020
4020
4040
4040
8080
8300
FC00
ENDCHAR

STARTCHAR Dcroat
ENCODING 208
SWIDTH 722 0
DWIDTH 12 0
BBX 11 12 1 0
BITMAP
1F80
1040
1040
2020
2020
F820
4020
4040
4040
8080
8300
FC00
ENDCHAR

STARTCHAR Nacute
ENCODING 209
SWIDTH 722 0
DWIDTH 12 0
BBX 12 15 1 0
BITMAP
00C0
0100
0000
1010
1010
1810
2820
2420
2420
4240
4240
4140
8180
8080
8080
ENDCHAR

STARTCHAR Ncaron
ENCODING 210
SWIDTH 722 0
DWIDTH 12 0
BBX 12 15 1 0
BITMAP
0240
0180
0000
1010
1010
1810
2820
2420
2420
4240
4240
4140
8180
8080
8080
ENDCHAR

STARTCHAR Oacute
ENCODING 211
SWIDTH 778 0
DWIDTH 13 0
BBX 11 15 2 0
BITMAP
0180
0200
0000
0780
1840
2020
4020
4020
8020
8020
8040
8040
8080
4300
3C00
ENDCHAR

STARTCHAR Ocircumflex
ENCODING 212
SWIDTH 778 0
DWIDTH 13 0
BBX 11 15 2 0
BITMAP
0300
0480
0000
0780
1840
2020
4020
4020
8020
8020
8040
8040
8080
4300
3C00
ENDCHAR

STARTCHAR Ohungarumlaut
ENCODING 213
SWIDTH 778 0
DWIDTH 13 0
BBX 11 15 2 0
BITMAP
0360
0480
0000
0780
1840
2020
4020
4020
8020
8020
8040
8040
8080
4300
3C00
ENDCHAR

STARTCHAR Odieresis
ENCODING 214
SWIDTH 778 0
DWIDTH 13 0
BBX 11 15 2 0
BITMAP
0240
0240
0000
0780
1840
2020
4020
4020
8020
8020
8040
8040
8080
4300
3C00
ENDCHAR

STARTCHAR multiply
ENCODING 215
SWIDTH 584 0
DWIDTH 10 0
BBX 7 6 2 3
BITMAP
C6
44
38
38
44
C6
ENDCHAR

STARTCHAR Rcaron
ENCODING 216
SWIDTH 722 0
DWIDTH 12 0
BBX 10 15 1 0
BITMAP
0480
0300
0000
1F80
1040
1040
2040
2080
3F00
4200
4200
4100
8100
8080
8080
ENDCHAR

STARTCHAR Uring
ENCODING 217
SWIDTH 722 0
DWIDTH 11 0
BBX 11 15 1 0
BITMAP
0200
0500
0200
2020
2020
2020
4040
4040
4040
8080
8080
8080
8100
4200
3C00
ENDCHAR

STARTCHAR Uacute
ENCODING 218
SWIDTH 722 0
DWIDTH 11 0
BBX 11 15 1 0
BITMAP
0300
0400
0000
2020
2020
2020
4040
4040
4040
8080
8080
8080
8100
4200
3C00
ENDCHAR

STARTCHAR Uhungarumlaut
ENCODING 219
SWIDTH 722 0
DWIDTH 11 0
BBX 11 15 1 0
BITMAP
06C0
0900
0000
2020
2020
2020
4040
4040
4040
8080
8080
8080
8100
4200
3C00
ENDCHAR

STARTCHAR Udieresis
ENCODING 220
SWIDTH 722 0
DWIDTH 11 0
BBX 11 15 1 0
BITMAP
0480
0480
0000
2020
2020
2020
4040
4040
4040
8080
8080
8080
8100
4200
3C00
ENDCHAR

STARTCHAR Yacute
ENCODING 221
SWIDTH 667 0
DWIDTH 11 0
BBX 10 15 2 0
BITMAP
0600
0800
0000
8040
8080
4100
4200
2400
3800
1000
1000
1000
2000
2000
2000
ENDCHAR

STARTCHAR Tcommaaccent
ENCODING 222
SWIDTH 611 0
DWIDTH 10 0
BBX 10 16 2 -4
BITMAP
FFC0
0400
0400
0800
0800
0800
1000
1000
1000
2000
2000
2000
0000
6000
2000
C000
ENDCHAR

STARTCHAR germandbls
ENCODING 223
SWIDTH 611 0
DWIDTH 10 0
BBX 9 12 1 0
BITMAP
0F00
1080
2080
2100
2200
6600
4100
4080
C080
8080
9100
8F00
ENDCHAR

STARTCHAR racute
ENCODING 224
SWIDTH 333 0
DWIDTH 6 0
BBX 7 12 1 0
BITMAP
06
08
00
2C
30
20
60
40
40
80
80
80
ENDCHAR

STARTCHAR aacute
ENCODING 225
SWIDTH 556 0
DWIDTH 9 0
BBX 8 12 1 0
BITMAP
06
08
00
3E
41
01
1E
62
82
84
8C
74
ENDCHAR

STARTCHAR acircumflex
ENCODING 226
SWIDTH 556 0
DWIDTH 9 0
BBX 8 12 1 0
BITMAP
0C
12
00
3E
41
01
1E
62
82
84
8C
74
ENDCHAR

STARTCHAR abreve
ENCODING 227
SWIDTH 556 0
DWIDTH 9 0
BBX 8 12 1 0
BITMAP
11
0E
00
3E
41
01
1E
62
82
84
8C
74
ENDCHAR

STARTCHAR adieresis
ENCODING 228
SWIDTH 556 0
DWIDTH 9 0
BBX 8 12 1 0
BITMAP
12
12
00
3E
41
01
1E
62
82
84
8C
74
ENDCHAR

STARTCHAR lacute
ENCODING 229
SWIDTH 222 0
DWIDTH 4 0
BBX 7 15 1 0
BITMAP
06
08
00
10
10
10
20
20
20
40
40
40
80
80
80
ENDCHAR

STARTCHAR cacute
ENCODING 230
SWIDTH 500 0
DWIDTH 9 0
BBX 8 12 1 0
BITMAP
06
08
00
1E
21
41
40
80
80
82
84
78
ENDCHAR

STARTCHAR ccedilla
ENCODING 231
SWIDTH 500 0
DWIDTH 9 0
BBX 8 12 1 -3
BITMAP
1E
21
41
40
80
80
82
84
78
20
10
60
ENDCHAR

STARTCHAR ccaron
ENCODING 232
SWIDTH 500 0
DWIDTH 9 0
BBX 8 12 1 0
BITMAP
12
0C
00
1E
21
41
40
80
80
82
84
78
ENDCHAR

STARTCHAR eacute
ENCODING 233
SWIDTH 556 0
DWIDTH 9 0
BBX 8 12 1 0
BITMAP
06
08
00
1E
21
41
41
FF
80
82
84
78
ENDCHAR

STARTCHAR eogonek
ENCODING 234
SWIDTH 556 0
DWIDTH 9 0
BBX 8 12 1 -3
BITMAP
1E
21
41
41
FF
80
82
84
78
10
10
0C
ENDCHAR

STARTCHAR edieresis
ENCODING 235
SWIDTH 556 0
DWIDTH 9 0
BBX 8 12 1 0
BITMAP
12
12
00
1E
21
41
41
FF
80
82
84
78
ENDCHAR

STARTCHAR ecaron
ENCODING 236
SWIDTH 556 0
DWIDTH 9 0
BBX 8 12 1 0
BITMAP
12
0C
00
1E
21
41
41
FF
80
82
84
78
ENDCHAR

STARTCHAR iacute
ENCODING 237
SWIDTH 278 0
DWIDTH 4 0
BBX 6 12 1 0
BITMAP
0C
10
00
20
20
20
40
40
40
80
80
80
ENDCHAR

STARTCHAR icircumflex
ENCODING 238
SWIDTH 278 0
DWIDTH 4 0
BBX 5 12 1 0
BITMAP
30
48
00
20
20
20
40
40
40
80
80
80
ENDCHAR

STARTCHAR dcaron
ENCODING 239
SWIDTH 625 0
DWIDTH 9 0
BBX 12 12 1 0
BITMAP
0090
00B0
0090
1D20
2300
4100
4200
8200
8200
8400
8C00
7400
ENDCHAR

STARTCHAR dcroat
ENCODING 240
SWIDTH 556 0
DWIDTH 9 0
BBX 10 12 1 0
BITMAP
0080
03C0
0080
1D00
2300
4100
4200
8200
8200
8400
8C00
7400
ENDCHAR

STARTCHAR nacute
ENCODING 241
SWIDTH 556 0
DWIDTH 9 0
BBX 8 12 1 0
BITMAP
06
08
00
2E
31
21
42
42
42
84
84
84
ENDCHAR

STARTCHAR ncaron
ENCODING 242
SWIDTH 556 0
DWIDTH 9 0
BBX 8 12 1 0
BITMAP
09
06
00
2E
31
21
42
42
42
84
84
84
ENDCHAR

STARTCHAR oacute
ENCODING 243
SWIDTH 556 0
DWIDTH 9 0
BBX 8 12 1 0
BITMAP
06
08
00
1E
21
41
41
81
82
82
84
78
ENDCHAR

STARTCHAR ocircumflex
ENCODING 244
SWIDTH 556 0
DWIDTH 9 0
BBX 8 12 1 0
BITMAP
06
09
00
1E
21
41
41
81
82
82
84
78
ENDCHAR

STARTCHAR ohungarumlaut
ENCODING 245
SWIDTH 556 0
DWIDTH 9 0
BBX 9 12 1 0
BITMAP
0D80
1200
0000
1E00
2100
4100
4100
8100
8200
8200
8400
7800
ENDCHAR

STARTCHAR odieresis
ENCODING 246
SWIDTH 556 0
DWIDTH 9 0
BBX 8 12 1 0
BITMAP
12
12
00
1E
21
41
41
81
82
82
84
78
ENDCHAR

STARTCHAR divide
ENCODING 247
SWIDTH 584 0
DWIDTH 10 0
BBX 8 7 2 3
BITMAP
18
18
00
FF
00
18
18
ENDCHAR

STARTCHAR rcaron
ENCODING 248
SWIDTH 333 0
DWIDTH 6 0
BBX 6 12 1 0
BITMAP
24
18
00
2C
30
20
60
40
40
80
80
80
ENDCHAR

STARTCHAR uring
ENCODING 249
SWIDTH 556 0
DWIDTH 9 0
BBX 8 13 1 0
BITMAP
04
0A
04
00
21
21
41
42
42
82
84
8C
74
ENDCHAR

STARTCHAR uacute
ENCODING 250
SWIDTH 556 0
DWIDTH 9 0
BBX 8 12 1 0
BITMAP
06
08
00
21
21
41
42
42
82
84
8C
74
ENDCHAR

STARTCHAR uhungarumlaut
ENCODING 251
SWIDTH 556 0
DWIDTH 9 0
BBX 9 12 1 0
BITMAP
0D80
1200
0000
2100
2100
4100
4200
4200
8200
8400
8C00
7400
ENDCHAR

STARTCHAR udieresis
ENCODING 252
SWIDTH 556 0
DWIDTH 9 0
BBX 8 12 1 0
BITMAP
12
12
00
21
21
41
42
42
82
84
8C
74
ENDCHAR

STARTCHAR yacute
ENCODING 253
SWIDTH 500 0
DWIDTH 9 0
BBX 9 15 0 -3
BITMAP
0300
0400
0000
2080
2080
2100
1200
1200
1400
0800
0800
1000
1000
2000
C000
ENDCHAR

STARTCHAR tcommaaccent
ENCODING 254
SWIDTH 278 0
DWIDTH 5 0
BBX 5 15 1 -4
BITMAP
20
20
F8
20
40
40
40
80
80
80
60
00
60
20
C0
ENDCHAR

STARTCHAR dotaccent
ENCODING 255
SWIDTH 333 0
DWIDTH 6 0
BBX 1 2 3 10
BITMAP
80
80
ENDCHAR
ENDFONT
